<svg xmlns="http://www.w3.org/2000/svg" width="41" height="40.999" viewBox="0 0 41 40.999">
  <g id="edit" transform="translate(0 -0.501)">
    <path id="Tracé_3" data-name="Tracé 3" d="M32.458,99.483a1.708,1.708,0,0,0-1.708,1.708v13.667a1.71,1.71,0,0,1-1.708,1.708H5.125a1.71,1.71,0,0,1-1.708-1.708V90.941a1.71,1.71,0,0,1,1.708-1.708H18.792a1.708,1.708,0,0,0,0-3.417H5.125A5.131,5.131,0,0,0,0,90.941v23.917a5.131,5.131,0,0,0,5.125,5.125H29.042a5.131,5.131,0,0,0,5.125-5.125V101.191a1.707,1.707,0,0,0-1.709-1.708Zm0,0" transform="translate(0 -78.483)" fill="#005691"/>
    <path id="Tracé_4" data-name="Tracé 4" d="M183.267,81.778a.864.864,0,0,0-.234.435l-1.208,6.041a.853.853,0,0,0,.839,1.021.812.812,0,0,0,.167-.017l6.039-1.208a.85.85,0,0,0,.437-.234L202.824,74.3l-6.039-6.039Zm0,0" transform="translate(-167.25 -62.335)" fill="#005691"/>
    <path id="Tracé_5" data-name="Tracé 5" d="M399.849,1.75a4.274,4.274,0,0,0-6.039,0l-2.364,2.364,6.039,6.039,2.364-2.364a4.27,4.27,0,0,0,0-6.039Zm0,0" transform="translate(-360.099)" fill="#005691"/>
  </g>
</svg>
